<?xml version="1.0" standalone="no"?>
<!DOCTYPE svg PUBLIC "-//W3C//DTD SVG 20010904//EN"
 "http://www.w3.org/TR/2001/REC-SVG-20010904/DTD/svg10.dtd">
<svg version="1.0" xmlns="http://www.w3.org/2000/svg"
 width="500.000000pt" height="500.000000pt" viewBox="0 0 500.000000 500.000000"
 preserveAspectRatio="xMidYMid meet">
<metadata>
Created by potrace 1.11, written by Peter Selinger 2001-2013
</metadata>
<g transform="translate(0.000000,500.000000) scale(0.100000,-0.100000)"
fill="#000000" stroke="none">
<path d="M550 4920 l0 -80 -80 0 -80 0 0 -155 0 -155 -75 0 -75 0 0 -160 0
-160 75 0 75 0 0 -75 0 -75 80 0 80 0 0 -1405 0 -1405 80 0 80 0 0 -80 0 -80
75 0 75 0 0 -80 0 -80 80 0 80 0 0 -75 0 -75 75 0 75 0 0 -80 0 -80 160 0 160
0 0 -80 0 -80 75 0 75 0 0 -75 0 -75 160 0 160 0 0 -80 0 -80 155 0 155 0 0
-75 0 -75 235 0 235 0 0 75 0 75 155 0 155 0 0 80 0 80 155 0 155 0 0 75 0 75
80 0 80 0 0 80 0 80 155 0 155 0 0 80 0 80 80 0 80 0 0 75 0 75 75 0 75 0 0
80 0 80 80 0 80 0 0 80 0 80 80 0 80 0 0 1405 0 1405 75 0 75 0 0 75 0 75 80
0 80 0 0 160 0 160 -80 0 -80 0 0 155 0 155 -75 0 -75 0 0 80 0 80 -235 0
-235 0 0 -80 0 -80 -160 0 -160 0 0 -80 0 -80 -155 0 -155 0 0 -75 0 -75 -235
0 -235 0 0 -80 0 -80 -390 0 -390 0 0 80 0 80 -235 0 -235 0 0 75 0 75 -155 0
-155 0 0 80 0 80 -155 0 -155 0 0 80 0 80 -235 0 -235 0 0 -80z m470 -160 l0
-80 155 0 155 0 0 -75 0 -75 155 0 155 0 0 -80 0 -80 235 0 235 0 0 -80 0 -80
390 0 390 0 0 80 0 80 235 0 235 0 0 80 0 80 155 0 155 0 0 75 0 75 160 0 160
0 0 80 0 80 235 0 235 0 0 -155 0 -155 75 0 75 0 0 -160 0 -160 -75 0 -75 0 0
-75 0 -75 -80 0 -80 0 0 -1405 0 -1405 -80 0 -80 0 0 -80 0 -80 -75 0 -75 0 0
-80 0 -80 -80 0 -80 0 0 -75 0 -75 -155 0 -155 0 0 -80 0 -80 -80 0 -80 0 0
-80 0 -80 -155 0 -155 0 0 -75 0 -75 -155 0 -155 0 0 -80 0 -80 -235 0 -235 0
0 80 0 80 -155 0 -155 0 0 75 0 75 -160 0 -160 0 0 80 0 80 -75 0 -75 0 0 80
0 80 -160 0 -160 0 0 75 0 75 -75 0 -75 0 0 80 0 80 -80 0 -80 0 0 80 0 80
-75 0 -75 0 0 1405 0 1405 -80 0 -80 0 0 75 0 75 -80 0 -80 0 0 160 0 160 80
0 80 0 0 155 0 155 235 0 235 0 0 -80z"/>
<path d="M710 4605 l0 -75 -80 0 -80 0 0 -160 0 -160 155 0 155 0 0 -1480 0
-1480 80 0 80 0 0 -80 0 -80 75 0 75 0 0 -80 0 -80 160 0 160 0 0 -75 0 -75
75 0 75 0 0 -80 0 -80 160 0 160 0 0 -80 0 -80 155 0 155 0 0 -75 0 -75 235 0
235 0 0 75 0 75 155 0 155 0 0 80 0 80 155 0 155 0 0 80 0 80 80 0 80 0 0 75
0 75 155 0 155 0 0 80 0 80 80 0 80 0 0 80 0 80 75 0 75 0 0 1480 0 1480 160
0 160 0 0 160 0 160 -80 0 -80 0 0 75 0 75 -155 0 -155 0 0 -75 0 -75 -160 0
-160 0 0 -80 0 -80 -155 0 -155 0 0 -80 0 -80 -235 0 -235 0 0 -75 0 -75 -390
0 -390 0 0 75 0 75 -235 0 -235 0 0 80 0 80 -155 0 -155 0 0 80 0 80 -155 0
-155 0 0 75 0 75 -155 0 -155 0 0 -75z m1250 -1640 l0 -785 75 0 75 0 0 80 0
80 80 0 80 0 0 155 0 155 75 0 75 0 0 80 0 80 80 0 80 0 0 -80 0 -80 80 0 80
0 0 -155 0 -155 75 0 75 0 0 -80 0 -80 80 0 80 0 0 785 0 785 155 0 155 0 0
-1095 0 -1095 -155 0 -155 0 0 75 0 75 -80 0 -80 0 0 160 0 160 -75 0 -75 0 0
75 0 75 -80 0 -80 0 0 80 0 80 -80 0 -80 0 0 -80 0 -80 -75 0 -75 0 0 -75 0
-75 -80 0 -80 0 0 -160 0 -160 -75 0 -75 0 0 -75 0 -75 -160 0 -160 0 0 1095
0 1095 160 0 160 0 0 -785z"/>
</g>
</svg>
